<svg width="56" height="56" viewBox="0 0 56 56" fill="none" xmlns="http://www.w3.org/2000/svg">
<g filter="url(#filter0_d_0_1)">
<rect x="4" width="48" height="48" fill="#F0F0F0"/>
<rect x="5.5" y="1.5" width="45" height="45" stroke="url(#paint0_linear_0_1)" stroke-width="3"/>
<path d="M33.1431 25.1426H10.8574V25.9997H33.1431V25.1426ZM33.1431 29.4283H10.8574V30.2854H33.1431V29.4283ZM10.8574 33.714H33.1431V34.5711H10.8574V33.714ZM33.1431 37.9997H10.8574V38.8569H33.1431V37.9997Z" fill="#222222"/>
<path d="M15.1429 20C12.3025 20 10 22.3025 10 25.1429V38.8571C10 41.6975 12.3025 44 15.1429 44H28.8571C31.6975 44 34 41.6975 34 38.8571V25.1429C34 22.3025 31.6975 20 28.8571 20H15.1429ZM15.1429 21.7143H28.8571C30.7507 21.7143 32.2857 23.2493 32.2857 25.1429V38.8571C32.2857 40.7507 30.7507 42.2857 28.8571 42.2857H15.1429C13.2493 42.2857 11.7143 40.7507 11.7143 38.8571V25.1429C11.7143 23.2493 13.2493 21.7143 15.1429 21.7143Z" fill="#222222"/>
<path d="M16.8711 25.1431C16.8711 24.4331 17.4467 23.8574 18.1568 23.8574C18.8669 23.8574 19.4425 24.4331 19.4425 25.1431C19.4425 24.4331 20.0182 23.8574 20.7282 23.8574C21.4383 23.8574 22.014 24.4331 22.014 25.1431C22.014 24.4331 22.5896 23.8574 23.2997 23.8574C24.0097 23.8574 24.5854 24.4331 24.5854 25.1431C24.5854 24.4331 25.161 23.8574 25.8711 23.8574C26.5812 23.8574 27.1568 24.4331 27.1568 25.1431V26.0003C27.1568 26.7104 26.5812 27.286 25.8711 27.286C25.161 27.286 24.5854 26.7104 24.5854 26.0003C24.5854 26.7104 24.0097 27.286 23.2997 27.286C22.5896 27.286 22.014 26.7104 22.014 26.0003C22.014 26.7104 21.4383 27.286 20.7282 27.286C20.0182 27.286 19.4425 26.7104 19.4425 26.0003C19.4425 26.7104 18.8669 27.286 18.1568 27.286C17.4467 27.286 16.8711 26.7104 16.8711 26.0003V25.1431ZM30.6738 23.8574C29.9638 23.8574 29.3881 24.4331 29.3881 25.1431V26.0003C29.3881 26.7104 29.9638 27.286 30.6738 27.286C31.3839 27.286 31.9596 26.7104 31.9596 26.0003V25.1431C31.9596 24.4331 31.3839 23.8574 30.6738 23.8574Z" fill="#222222"/>
<path d="M12.6465 29.4283C12.6465 28.7182 13.2221 28.1426 13.9322 28.1426C14.6423 28.1426 15.2179 28.7182 15.2179 29.4283C15.2179 28.7182 15.7935 28.1426 16.5036 28.1426C17.2137 28.1426 17.7893 28.7182 17.7893 29.4283C17.7893 28.7182 18.365 28.1426 19.0751 28.1426C19.7851 28.1426 20.3608 28.7182 20.3608 29.4283C20.3608 28.7182 20.9364 28.1426 21.6465 28.1426C22.3565 28.1426 22.9322 28.7182 22.9322 29.4283V30.2854C22.9322 30.9955 22.3565 31.5711 21.6465 31.5711C20.9364 31.5711 20.3608 30.9955 20.3608 30.2854C20.3608 30.9955 19.7851 31.5711 19.0751 31.5711C18.365 31.5711 17.7893 30.9955 17.7893 30.2854C17.7893 30.9955 17.2137 31.5711 16.5036 31.5711C15.7935 31.5711 15.2179 30.9955 15.2179 30.2854C15.2179 30.9955 14.6423 31.5711 13.9322 31.5711C13.2221 31.5711 12.6465 30.9955 12.6465 30.2854V29.4283ZM26.55 28.1426C25.84 28.1426 25.2643 28.7182 25.2643 29.4283V30.2854C25.2643 30.9955 25.84 31.5711 26.55 31.5711C27.2601 31.5711 27.8357 30.9955 27.8357 30.2854V29.4283C27.8357 28.7182 27.2601 28.1426 26.55 28.1426Z" fill="#222222"/>
<path d="M17.6562 33.7154C17.6562 33.0053 18.2319 32.4297 18.942 32.4297C19.652 32.4297 20.2277 33.0053 20.2277 33.7154C20.2277 33.0053 20.8033 32.4297 21.5134 32.4297C22.2235 32.4297 22.7991 33.0053 22.7991 33.7154C22.7991 33.0053 23.3748 32.4297 24.0848 32.4297C24.7949 32.4297 25.3705 33.0053 25.3705 33.7154C25.3705 33.0053 25.9462 32.4297 26.6563 32.4297C27.3663 32.4297 27.942 33.0053 27.942 33.7154V34.5725C27.942 35.2826 27.3663 35.8583 26.6563 35.8583C25.9462 35.8583 25.3705 35.2826 25.3705 34.5725C25.3705 35.2826 24.7949 35.8583 24.0848 35.8583C23.3748 35.8583 22.7991 35.2826 22.7991 34.5725C22.7991 35.2826 22.2235 35.8583 21.5134 35.8583C20.8033 35.8583 20.2277 35.2826 20.2277 34.5725C20.2277 35.2826 19.652 35.8583 18.942 35.8583C18.2319 35.8583 17.6562 35.2826 17.6562 34.5725V33.7154ZM29.2846 32.4297C28.5745 32.4297 27.9989 33.0053 27.9989 33.7154V34.5725C27.9989 35.2826 28.5745 35.8583 29.2846 35.8583C29.9946 35.8583 30.5703 35.2826 30.5703 34.5725V33.7154C30.5703 33.0053 29.9946 32.4297 29.2846 32.4297Z" fill="#222222"/>
<path d="M12.3184 38.0006C12.3184 37.2905 12.894 36.7148 13.6041 36.7148C14.3142 36.7148 14.8898 37.2905 14.8898 38.0006C14.8898 37.2905 15.4654 36.7148 16.1755 36.7148C16.8856 36.7148 17.4612 37.2905 17.4612 38.0006C17.4612 37.2905 18.0369 36.7148 18.7469 36.7148C19.457 36.7148 20.0326 37.2905 20.0326 38.0006C20.0326 37.2905 20.6083 36.7148 21.3184 36.7148C22.0284 36.7148 22.6041 37.2905 22.6041 38.0006V38.8577C22.6041 39.5678 22.0284 40.1434 21.3184 40.1434C20.6083 40.1434 20.0326 39.5678 20.0326 38.8577C20.0326 39.5678 19.457 40.1434 18.7469 40.1434C18.0369 40.1434 17.4612 39.5678 17.4612 38.8577C17.4612 39.5678 16.8856 40.1434 16.1755 40.1434C15.4654 40.1434 14.8898 39.5678 14.8898 38.8577C14.8898 39.5678 14.3142 40.1434 13.6041 40.1434C12.894 40.1434 12.3184 39.5678 12.3184 38.8577V38.0006ZM30.2875 36.7148C29.5774 36.7148 29.0018 37.2905 29.0018 38.0006V38.8577C29.0018 39.5678 29.5774 40.1434 30.2875 40.1434C30.9976 40.1434 31.5732 39.5678 31.5732 38.8577V38.0006C31.5732 37.2905 30.9976 36.7148 30.2875 36.7148Z" fill="#222222"/>
<path d="M21.054 17V16.1051L24.4148 12.4261C24.8092 11.9953 25.134 11.6207 25.3892 11.3026C25.6444 10.9811 25.8333 10.6795 25.956 10.3977C26.0819 10.1127 26.1449 9.81439 26.1449 9.50284C26.1449 9.14489 26.0587 8.83499 25.8864 8.57315C25.7173 8.31132 25.4853 8.10914 25.1903 7.96662C24.8954 7.8241 24.5639 7.75284 24.196 7.75284C23.8049 7.75284 23.4635 7.83404 23.1719 7.99645C22.8835 8.15554 22.6598 8.37926 22.5007 8.66761C22.3449 8.95597 22.267 9.29403 22.267 9.68182H21.0938C21.0938 9.08523 21.2313 8.56155 21.5064 8.1108C21.7815 7.66004 22.156 7.30871 22.63 7.05682C23.1072 6.80492 23.6425 6.67898 24.2358 6.67898C24.8324 6.67898 25.361 6.80492 25.8217 7.05682C26.2824 7.30871 26.6437 7.64844 26.9055 8.07599C27.1674 8.50355 27.2983 8.97917 27.2983 9.50284C27.2983 9.87737 27.2304 10.2436 27.0945 10.6016C26.9619 10.9562 26.7299 11.3523 26.3984 11.7898C26.0703 12.224 25.6146 12.7543 25.0312 13.3807L22.7443 15.8267V15.9062H27.4773V17H21.054ZM35.5163 15.1705L29.9084 9.5625L30.6641 8.80682L36.272 14.4148L35.5163 15.1705ZM30.6641 15.1705L29.9084 14.4148L35.5163 8.80682L36.272 9.5625L30.6641 15.1705ZM38.7591 17V16.1051L42.1199 12.4261C42.5143 11.9953 42.8391 11.6207 43.0943 11.3026C43.3495 10.9811 43.5384 10.6795 43.661 10.3977C43.787 10.1127 43.85 9.81439 43.85 9.50284C43.85 9.14489 43.7638 8.83499 43.5914 8.57315C43.4224 8.31132 43.1904 8.10914 42.8954 7.96662C42.6004 7.8241 42.269 7.75284 41.9011 7.75284C41.51 7.75284 41.1686 7.83404 40.877 7.99645C40.5886 8.15554 40.3649 8.37926 40.2058 8.66761C40.05 8.95597 39.9721 9.29403 39.9721 9.68182H38.7988C38.7988 9.08523 38.9364 8.56155 39.2115 8.1108C39.4866 7.66004 39.8611 7.30871 40.335 7.05682C40.8123 6.80492 41.3476 6.67898 41.9409 6.67898C42.5375 6.67898 43.0661 6.80492 43.5268 7.05682C43.9875 7.30871 44.3488 7.64844 44.6106 8.07599C44.8725 8.50355 45.0034 8.97917 45.0034 9.50284C45.0034 9.87737 44.9354 10.2436 44.7995 10.6016C44.667 10.9562 44.435 11.3523 44.1035 11.7898C43.7754 12.224 43.3197 12.7543 42.7363 13.3807L40.4494 15.8267V15.9062H45.1824V17H38.7591Z" fill="black"/>
</g>
<defs>
<filter id="filter0_d_0_1" x="0" y="0" width="56" height="56" filterUnits="userSpaceOnUse" color-interpolation-filters="sRGB">
<feFlood flood-opacity="0" result="BackgroundImageFix"/>
<feColorMatrix in="SourceAlpha" type="matrix" values="0 0 0 0 0 0 0 0 0 0 0 0 0 0 0 0 0 0 127 0" result="hardAlpha"/>
<feOffset dy="4"/>
<feGaussianBlur stdDeviation="2"/>
<feComposite in2="hardAlpha" operator="out"/>
<feColorMatrix type="matrix" values="0 0 0 0 0 0 0 0 0 0 0 0 0 0 0 0 0 0 0.25 0"/>
<feBlend mode="normal" in2="BackgroundImageFix" result="effect1_dropShadow_0_1"/>
<feBlend mode="normal" in="SourceGraphic" in2="effect1_dropShadow_0_1" result="shape"/>
</filter>
<linearGradient id="paint0_linear_0_1" x1="28" y1="0" x2="28" y2="48" gradientUnits="userSpaceOnUse">
<stop stop-color="#DCDCDC"/>
<stop offset="1" stop-color="#F0F0F0"/>
</linearGradient>
</defs>
</svg>
