<svg width="56" height="56" viewBox="0 0 56 56" fill="none" xmlns="http://www.w3.org/2000/svg">
<g filter="url(#filter0_d_0_1)">
<rect x="4" width="48" height="48" fill="#F0F0F0"/>
<rect x="5.5" y="1.5" width="45" height="45" stroke="url(#paint0_linear_0_1)" stroke-width="3"/>
<path d="M20.6927 33C22.0058 33 23.2662 33.5165 24.2016 34.438L26.8194 37.0168C28.6312 38.8016 28.8146 41.6621 27.2454 43.6636L26.9152 44.0849C25.9674 45.2938 24.5165 46 22.9803 46H20.9387C20.3638 46 19.7933 45.9009 19.2521 45.7069L15.895 44.504C13.2232 43.5466 11.8831 40.5597 12.9444 37.9274L13.6689 36.1303C14.4316 34.2388 16.2667 33 18.3062 33H20.6927Z" fill="#222222"/>
<rect x="19.7065" y="33.288" width="25.9978" height="14.4361" rx="5.5" transform="rotate(-42.5508 19.7065 33.288)" fill="#F0F0F0" stroke="#222222"/>
<line x1="23.3345" y1="30.6284" x2="33.3345" y2="39.6284" stroke="black"/>
<line x1="34.3166" y1="19.613" x2="45.3166" y2="28.613" stroke="black"/>
<path d="M17.4261 10H16.1932C16.1203 9.64536 15.9927 9.33381 15.8104 9.06534C15.6314 8.79688 15.4126 8.5715 15.1541 8.3892C14.8989 8.2036 14.6155 8.06439 14.304 7.97159C13.9924 7.87879 13.6676 7.83239 13.3295 7.83239C12.7131 7.83239 12.1546 7.98816 11.6541 8.29972C11.157 8.61127 10.7609 9.07031 10.4659 9.67685C10.1742 10.2834 10.0284 11.0275 10.0284 11.9091C10.0284 12.7907 10.1742 13.5348 10.4659 14.1413C10.7609 14.7479 11.157 15.2069 11.6541 15.5185C12.1546 15.83 12.7131 15.9858 13.3295 15.9858C13.6676 15.9858 13.9924 15.9394 14.304 15.8466C14.6155 15.7538 14.8989 15.6162 15.1541 15.4339C15.4126 15.2483 15.6314 15.0213 15.8104 14.7528C15.9927 14.4811 16.1203 14.1695 16.1932 13.8182H17.4261C17.3333 14.3385 17.1643 14.8042 16.919 15.2152C16.6738 15.6262 16.3688 15.9759 16.0043 16.2642C15.6397 16.5492 15.2304 16.7663 14.7763 16.9155C14.3255 17.0646 13.8433 17.1392 13.3295 17.1392C12.4612 17.1392 11.6889 16.9271 11.0128 16.5028C10.3366 16.0786 9.80469 15.4754 9.4169 14.6932C9.02912 13.911 8.83523 12.983 8.83523 11.9091C8.83523 10.8352 9.02912 9.9072 9.4169 9.125C9.80469 8.3428 10.3366 7.73958 11.0128 7.31534C11.6889 6.8911 12.4612 6.67898 13.3295 6.67898C13.8433 6.67898 14.3255 6.75355 14.7763 6.9027C15.2304 7.05185 15.6397 7.2706 16.0043 7.55895C16.3688 7.84399 16.6738 8.192 16.919 8.60298C17.1643 9.01065 17.3333 9.47633 17.4261 10ZM19.4185 17V6.81818H20.6515V15.9062H25.3844V17H19.4185ZM27.2935 17V6.81818H30.7338C31.5293 6.81818 32.1822 6.95407 32.6926 7.22585C33.2031 7.49432 33.5809 7.86387 33.8262 8.33452C34.0714 8.80516 34.1941 9.34044 34.1941 9.94034C34.1941 10.5402 34.0714 11.0722 33.8262 11.5362C33.5809 12.0002 33.2047 12.3648 32.6976 12.63C32.1905 12.8918 31.5426 13.0227 30.7537 13.0227H27.9696V11.9091H30.714C31.2575 11.9091 31.695 11.8295 32.0265 11.6705C32.3612 11.5114 32.6032 11.286 32.7523 10.9943C32.9048 10.6993 32.981 10.348 32.981 9.94034C32.981 9.53267 32.9048 9.17637 32.7523 8.87145C32.5998 8.56652 32.3562 8.3312 32.0215 8.16548C31.6867 7.99645 31.2443 7.91193 30.6941 7.91193H28.5265V17H27.2935ZM32.0861 12.4261L34.5918 17H33.16L30.6941 12.4261H32.0861Z" fill="black"/>
</g>
<defs>
<filter id="filter0_d_0_1" x="0" y="0" width="56" height="56" filterUnits="userSpaceOnUse" color-interpolation-filters="sRGB">
<feFlood flood-opacity="0" result="BackgroundImageFix"/>
<feColorMatrix in="SourceAlpha" type="matrix" values="0 0 0 0 0 0 0 0 0 0 0 0 0 0 0 0 0 0 127 0" result="hardAlpha"/>
<feOffset dy="4"/>
<feGaussianBlur stdDeviation="2"/>
<feComposite in2="hardAlpha" operator="out"/>
<feColorMatrix type="matrix" values="0 0 0 0 0 0 0 0 0 0 0 0 0 0 0 0 0 0 0.25 0"/>
<feBlend mode="normal" in2="BackgroundImageFix" result="effect1_dropShadow_0_1"/>
<feBlend mode="normal" in="SourceGraphic" in2="effect1_dropShadow_0_1" result="shape"/>
</filter>
<linearGradient id="paint0_linear_0_1" x1="28" y1="0" x2="28" y2="48" gradientUnits="userSpaceOnUse">
<stop stop-color="#DCDCDC"/>
<stop offset="1" stop-color="#F0F0F0"/>
</linearGradient>
</defs>
</svg>
