<svg width="48" height="48" viewBox="0 0 48 48" fill="none" xmlns="http://www.w3.org/2000/svg">
<rect x="1.5" y="1.5" width="45" height="45" stroke="#FF3162" stroke-opacity="0.2" stroke-width="3"/>
<mask id="path-3-inside-1_0_1" fill="white">
<path d="M25.0599 23.9954L35.7804 34.7193C36.0733 35.0123 36.0732 35.4874 35.7802 35.7804C35.6396 35.921 35.4489 35.9999 35.2502 36C35.0512 36.0003 34.8603 35.9211 34.7199 35.7802L23.9993 25.0563L13.2789 35.7801C13.1384 35.921 12.9476 36.0002 12.7487 36C12.3345 35.9999 11.9999 35.7477 12 35.3333C12 35.1344 12.0777 34.8599 12.2184 34.7192L22.9388 23.9954L12.2184 13.2716C11.9306 12.9735 11.9388 12.4986 12.2368 12.2107C12.5275 11.9299 12.9883 11.9299 13.2789 12.2107L23.9993 22.9345L34.7199 12.2106C35.0178 11.9228 35.4926 11.931 35.7804 12.229C36.0612 12.5198 36.0612 12.9808 35.7804 13.2715L25.0599 23.9954Z"/>
</mask>
<path d="M25.0599 23.9954L35.7804 34.7193C36.0733 35.0123 36.0732 35.4874 35.7802 35.7804C35.6396 35.921 35.4489 35.9999 35.2502 36C35.0512 36.0003 34.8603 35.9211 34.7199 35.7802L23.9993 25.0563L13.2789 35.7801C13.1384 35.921 12.9476 36.0002 12.7487 36C12.3345 35.9999 11.9999 35.7477 12 35.3333C12 35.1344 12.0777 34.8599 12.2184 34.7192L22.9388 23.9954L12.2184 13.2716C11.9306 12.9735 11.9388 12.4986 12.2368 12.2107C12.5275 11.9299 12.9883 11.9299 13.2789 12.2107L23.9993 22.9345L34.7199 12.2106C35.0178 11.9228 35.4926 11.931 35.7804 12.229C36.0612 12.5198 36.0612 12.9808 35.7804 13.2715L25.0599 23.9954Z" stroke="#222222" stroke-width="2" mask="url(#path-3-inside-1_0_1)"/>
</svg>
