<svg width="56" height="56" viewBox="0 0 56 56" fill="none" xmlns="http://www.w3.org/2000/svg">
<g filter="url(#filter0_d_0_1)">
<rect x="4" width="48" height="48" fill="#F0F0F0"/>
<rect x="5.5" y="1.5" width="45" height="45" stroke="url(#paint0_linear_0_1)" stroke-width="3"/>
<mask id="path-3-inside-1_0_1" fill="white">
<path d="M24.0599 31.9954L34.7804 42.7193C35.0733 43.0123 35.0732 43.4874 34.7802 43.7804C34.6396 43.921 34.4489 43.9999 34.2502 44C34.0512 44.0003 33.8603 43.9211 33.7199 43.7802L22.9993 33.0563L12.2789 43.7801C12.1384 43.921 11.9476 44.0002 11.7487 44C11.3345 43.9999 10.9999 43.7477 11 43.3333C11 43.1344 11.0777 42.8599 11.2184 42.7192L21.9388 31.9954L11.2184 21.2716C10.9306 20.9735 10.9388 20.4986 11.2368 20.2107C11.5275 19.9299 11.9883 19.9299 12.2789 20.2107L22.9993 30.9345L33.7199 20.2106C34.0178 19.9228 34.4926 19.931 34.7804 20.229C35.0612 20.5198 35.0612 20.9808 34.7804 21.2715L24.0599 31.9954Z"/>
</mask>
<path d="M24.0599 31.9954L34.7804 42.7193C35.0733 43.0123 35.0732 43.4874 34.7802 43.7804C34.6396 43.921 34.4489 43.9999 34.2502 44C34.0512 44.0003 33.8603 43.9211 33.7199 43.7802L22.9993 33.0563L12.2789 43.7801C12.1384 43.921 11.9476 44.0002 11.7487 44C11.3345 43.9999 10.9999 43.7477 11 43.3333C11 43.1344 11.0777 42.8599 11.2184 42.7192L21.9388 31.9954L11.2184 21.2716C10.9306 20.9735 10.9388 20.4986 11.2368 20.2107C11.5275 19.9299 11.9883 19.9299 12.2789 20.2107L22.9993 30.9345L33.7199 20.2106C34.0178 19.9228 34.4926 19.931 34.7804 20.229C35.0612 20.5198 35.0612 20.9808 34.7804 21.2715L24.0599 31.9954Z" stroke="#222222" stroke-width="4" mask="url(#path-3-inside-1_0_1)"/>
<path d="M27.4261 10H26.1932C26.1203 9.64536 25.9927 9.33381 25.8104 9.06534C25.6314 8.79688 25.4126 8.5715 25.1541 8.3892C24.8989 8.2036 24.6155 8.06439 24.304 7.97159C23.9924 7.87879 23.6676 7.83239 23.3295 7.83239C22.7131 7.83239 22.1546 7.98816 21.6541 8.29972C21.157 8.61127 20.7609 9.07031 20.4659 9.67685C20.1742 10.2834 20.0284 11.0275 20.0284 11.9091C20.0284 12.7907 20.1742 13.5348 20.4659 14.1413C20.7609 14.7479 21.157 15.2069 21.6541 15.5185C22.1546 15.83 22.7131 15.9858 23.3295 15.9858C23.6676 15.9858 23.9924 15.9394 24.304 15.8466C24.6155 15.7538 24.8989 15.6162 25.1541 15.4339C25.4126 15.2483 25.6314 15.0213 25.8104 14.7528C25.9927 14.4811 26.1203 14.1695 26.1932 13.8182H27.4261C27.3333 14.3385 27.1643 14.8042 26.919 15.2152C26.6738 15.6262 26.3688 15.9759 26.0043 16.2642C25.6397 16.5492 25.2304 16.7663 24.7763 16.9155C24.3255 17.0646 23.8433 17.1392 23.3295 17.1392C22.4612 17.1392 21.6889 16.9271 21.0128 16.5028C20.3366 16.0786 19.8047 15.4754 19.4169 14.6932C19.0291 13.911 18.8352 12.983 18.8352 11.9091C18.8352 10.8352 19.0291 9.9072 19.4169 9.125C19.8047 8.3428 20.3366 7.73958 21.0128 7.31534C21.6889 6.8911 22.4612 6.67898 23.3295 6.67898C23.8433 6.67898 24.3255 6.75355 24.7763 6.9027C25.2304 7.05185 25.6397 7.2706 26.0043 7.55895C26.3688 7.84399 26.6738 8.192 26.919 8.60298C27.1643 9.01065 27.3333 9.47633 27.4261 10ZM29.4185 17V6.81818H30.6515V15.9062H35.3844V17H29.4185ZM42.8617 9.36364C42.802 8.85985 42.5601 8.46875 42.1358 8.19034C41.7116 7.91193 41.1912 7.77273 40.5748 7.77273C40.124 7.77273 39.7296 7.84564 39.3915 7.99148C39.0568 8.13731 38.7949 8.33783 38.606 8.59304C38.4204 8.84825 38.3276 9.13826 38.3276 9.46307C38.3276 9.73485 38.3922 9.96851 38.5215 10.1641C38.6541 10.3563 38.8231 10.517 39.0286 10.6463C39.2341 10.7723 39.4495 10.8767 39.6749 10.9595C39.9003 11.0391 40.1074 11.1037 40.2963 11.1534L41.3304 11.4318C41.5956 11.5014 41.8906 11.5975 42.2154 11.7202C42.5435 11.8428 42.8567 12.0102 43.155 12.2223C43.4566 12.4311 43.7052 12.6996 43.9007 13.0277C44.0963 13.3558 44.1941 13.7585 44.1941 14.2358C44.1941 14.786 44.0499 15.2831 43.7615 15.7273C43.4765 16.1714 43.0589 16.5244 42.5087 16.7862C41.9618 17.0481 41.2973 17.179 40.5151 17.179C39.7859 17.179 39.1545 17.0613 38.6209 16.826C38.0906 16.5907 37.673 16.2625 37.3681 15.8416C37.0665 15.4207 36.8958 14.9318 36.856 14.375H38.1287C38.1619 14.7595 38.2911 15.0777 38.5165 15.3295C38.7452 15.5781 39.0336 15.7637 39.3816 15.8864C39.7329 16.0057 40.1107 16.0653 40.5151 16.0653C40.9857 16.0653 41.4083 15.9891 41.7828 15.8366C42.1574 15.6809 42.454 15.4654 42.6728 15.1903C42.8915 14.9119 43.0009 14.5871 43.0009 14.2159C43.0009 13.8778 42.9064 13.6027 42.7175 13.3906C42.5286 13.1785 42.28 13.0062 41.9718 12.8736C41.6635 12.741 41.3304 12.625 40.9725 12.5256L39.7196 12.1676C38.9242 11.9389 38.2944 11.6125 37.8304 11.1882C37.3664 10.764 37.1344 10.2088 37.1344 9.52273C37.1344 8.95265 37.2885 8.45549 37.5968 8.03125C37.9083 7.60369 38.3259 7.27225 38.8496 7.03693C39.3766 6.7983 39.9649 6.67898 40.6145 6.67898C41.2708 6.67898 41.8541 6.79664 42.3645 7.03196C42.8749 7.26397 43.2793 7.58215 43.5776 7.98651C43.8792 8.39086 44.0383 8.8499 44.0549 9.36364H42.8617Z" fill="black"/>
</g>
<defs>
<filter id="filter0_d_0_1" x="0" y="0" width="56" height="56" filterUnits="userSpaceOnUse" color-interpolation-filters="sRGB">
<feFlood flood-opacity="0" result="BackgroundImageFix"/>
<feColorMatrix in="SourceAlpha" type="matrix" values="0 0 0 0 0 0 0 0 0 0 0 0 0 0 0 0 0 0 127 0" result="hardAlpha"/>
<feOffset dy="4"/>
<feGaussianBlur stdDeviation="2"/>
<feComposite in2="hardAlpha" operator="out"/>
<feColorMatrix type="matrix" values="0 0 0 0 0 0 0 0 0 0 0 0 0 0 0 0 0 0 0.25 0"/>
<feBlend mode="normal" in2="BackgroundImageFix" result="effect1_dropShadow_0_1"/>
<feBlend mode="normal" in="SourceGraphic" in2="effect1_dropShadow_0_1" result="shape"/>
</filter>
<linearGradient id="paint0_linear_0_1" x1="28" y1="0" x2="28" y2="48" gradientUnits="userSpaceOnUse">
<stop stop-color="#DCDCDC"/>
<stop offset="1" stop-color="#F0F0F0"/>
</linearGradient>
</defs>
</svg>
