<svg width="56" height="56" viewBox="0 0 56 56" fill="none" xmlns="http://www.w3.org/2000/svg">
<g filter="url(#filter0_d_0_1)">
<rect x="4" width="48" height="48" fill="#F0F0F0"/>
<rect x="5.5" y="1.5" width="45" height="45" stroke="url(#paint0_linear_0_1)" stroke-width="3"/>
<mask id="path-3-inside-1_0_1" fill="white">
<path d="M29.0599 23.9954L39.7804 34.7193C40.0733 35.0123 40.0732 35.4874 39.7802 35.7804C39.6396 35.921 39.4489 35.9999 39.2502 36C39.0512 36.0003 38.8603 35.9211 38.7199 35.7802L27.9993 25.0563L17.2789 35.7801C17.1384 35.921 16.9476 36.0002 16.7487 36C16.3345 35.9999 15.9999 35.7477 16 35.3333C16 35.1344 16.0777 34.8599 16.2184 34.7192L26.9388 23.9954L16.2184 13.2716C15.9306 12.9735 15.9388 12.4986 16.2368 12.2107C16.5275 11.9299 16.9883 11.9299 17.2789 12.2107L27.9993 22.9345L38.7199 12.2106C39.0178 11.9228 39.4926 11.931 39.7804 12.229C40.0612 12.5198 40.0612 12.9808 39.7804 13.2715L29.0599 23.9954Z"/>
</mask>
<path d="M29.0599 23.9954L39.7804 34.7193C40.0733 35.0123 40.0732 35.4874 39.7802 35.7804C39.6396 35.921 39.4489 35.9999 39.2502 36C39.0512 36.0003 38.8603 35.9211 38.7199 35.7802L27.9993 25.0563L17.2789 35.7801C17.1384 35.921 16.9476 36.0002 16.7487 36C16.3345 35.9999 15.9999 35.7477 16 35.3333C16 35.1344 16.0777 34.8599 16.2184 34.7192L26.9388 23.9954L16.2184 13.2716C15.9306 12.9735 15.9388 12.4986 16.2368 12.2107C16.5275 11.9299 16.9883 11.9299 17.2789 12.2107L27.9993 22.9345L38.7199 12.2106C39.0178 11.9228 39.4926 11.931 39.7804 12.229C40.0612 12.5198 40.0612 12.9808 39.7804 13.2715L29.0599 23.9954Z" stroke="#222222" stroke-width="4" mask="url(#path-3-inside-1_0_1)"/>
</g>
<defs>
<filter id="filter0_d_0_1" x="0" y="0" width="56" height="56" filterUnits="userSpaceOnUse" color-interpolation-filters="sRGB">
<feFlood flood-opacity="0" result="BackgroundImageFix"/>
<feColorMatrix in="SourceAlpha" type="matrix" values="0 0 0 0 0 0 0 0 0 0 0 0 0 0 0 0 0 0 127 0" result="hardAlpha"/>
<feOffset dy="4"/>
<feGaussianBlur stdDeviation="2"/>
<feComposite in2="hardAlpha" operator="out"/>
<feColorMatrix type="matrix" values="0 0 0 0 0 0 0 0 0 0 0 0 0 0 0 0 0 0 0.25 0"/>
<feBlend mode="normal" in2="BackgroundImageFix" result="effect1_dropShadow_0_1"/>
<feBlend mode="normal" in="SourceGraphic" in2="effect1_dropShadow_0_1" result="shape"/>
</filter>
<linearGradient id="paint0_linear_0_1" x1="28" y1="0" x2="28" y2="48" gradientUnits="userSpaceOnUse">
<stop stop-color="#DCDCDC"/>
<stop offset="1" stop-color="#F0F0F0"/>
</linearGradient>
</defs>
</svg>
