<svg width="56" height="56" viewBox="0 0 56 56" fill="none" xmlns="http://www.w3.org/2000/svg">
<g filter="url(#filter0_d_0_1)">
<rect x="4" width="48" height="48" fill="#F0F0F0" shape-rendering="crispEdges"/>
<rect x="5.5" y="1.5" width="45" height="45" stroke="url(#paint0_linear_0_1)" stroke-width="3" shape-rendering="crispEdges"/>
<path d="M34 23L33.3861 22.2106L34 21.7331L34.6139 22.2106L34 23ZM35 37C35 37.5523 34.5523 38 34 38C33.4477 38 33 37.5523 33 37L35 37ZM23.3861 29.9884L33.3861 22.2106L34.6139 23.7894L24.6139 31.5671L23.3861 29.9884ZM34.6139 22.2106L44.6139 29.9884L43.3861 31.5671L33.3861 23.7894L34.6139 22.2106ZM35 23L35 37L33 37L33 23L35 23Z" fill="#222222"/>
<path d="M14 35L14 37C14 39.2091 15.7909 41 18 41L38 41C40.2091 41 42 39.2091 42 37V35" stroke="#222222" stroke-width="2"/>
<path d="M20 9L10 25M10 9L20 25" stroke="#222222" stroke-width="2" stroke-linecap="round" stroke-linejoin="round"/>
<path d="M23.233 19V8.81818H24.4659V17.9062H29.1989V19H23.233ZM36.6761 11.3636C36.6165 10.8598 36.3745 10.4688 35.9503 10.1903C35.526 9.91193 35.0057 9.77273 34.3892 9.77273C33.9384 9.77273 33.544 9.84564 33.206 9.99148C32.8712 10.1373 32.6094 10.3378 32.4205 10.593C32.2348 10.8482 32.142 11.1383 32.142 11.4631C32.142 11.7348 32.2067 11.9685 32.3359 12.1641C32.4685 12.3563 32.6375 12.517 32.843 12.6463C33.0485 12.7723 33.264 12.8767 33.4893 12.9595C33.7147 13.0391 33.9219 13.1037 34.1108 13.1534L35.1449 13.4318C35.41 13.5014 35.705 13.5975 36.0298 13.7202C36.358 13.8428 36.6712 14.0102 36.9695 14.2223C37.2711 14.4311 37.5196 14.6996 37.7152 15.0277C37.9107 15.3558 38.0085 15.7585 38.0085 16.2358C38.0085 16.786 37.8643 17.2831 37.576 17.7273C37.291 18.1714 36.8733 18.5244 36.3232 18.7862C35.7763 19.0481 35.1117 19.179 34.3295 19.179C33.6004 19.179 32.969 19.0613 32.4354 18.826C31.9051 18.5907 31.4875 18.2625 31.1825 17.8416C30.8809 17.4207 30.7102 16.9318 30.6705 16.375H31.9432C31.9763 16.7595 32.1056 17.0777 32.331 17.3295C32.5597 17.5781 32.848 17.7637 33.196 17.8864C33.5473 18.0057 33.9252 18.0653 34.3295 18.0653C34.8002 18.0653 35.2228 17.9891 35.5973 17.8366C35.9718 17.6809 36.2685 17.4654 36.4872 17.1903C36.706 16.9119 36.8153 16.5871 36.8153 16.2159C36.8153 15.8778 36.7209 15.6027 36.532 15.3906C36.343 15.1785 36.0945 15.0062 35.7862 14.8736C35.478 14.741 35.1449 14.625 34.7869 14.5256L33.5341 14.1676C32.7386 13.9389 32.1089 13.6125 31.6449 13.1882C31.1809 12.764 30.9489 12.2088 30.9489 11.5227C30.9489 10.9527 31.103 10.4555 31.4112 10.0312C31.7228 9.60369 32.1404 9.27225 32.6641 9.03693C33.1911 8.7983 33.7794 8.67898 34.429 8.67898C35.0852 8.67898 35.6686 8.79664 36.179 9.03196C36.6894 9.26397 37.0938 9.58215 37.392 9.98651C37.6937 10.3909 37.8527 10.8499 37.8693 11.3636H36.6761ZM40.6323 8.81818L43.2573 13.054H43.3368L45.9618 8.81818H47.4135L44.2118 13.9091L47.4135 19H45.9618L43.3368 14.8438H43.2573L40.6323 19H39.1806L42.4618 13.9091L39.1806 8.81818H40.6323Z" fill="black"/>
</g>
<defs>
<filter id="filter0_d_0_1" x="0" y="0" width="56" height="56" filterUnits="userSpaceOnUse" color-interpolation-filters="sRGB">
<feFlood flood-opacity="0" result="BackgroundImageFix"/>
<feColorMatrix in="SourceAlpha" type="matrix" values="0 0 0 0 0 0 0 0 0 0 0 0 0 0 0 0 0 0 127 0" result="hardAlpha"/>
<feOffset dy="4"/>
<feGaussianBlur stdDeviation="2"/>
<feComposite in2="hardAlpha" operator="out"/>
<feColorMatrix type="matrix" values="0 0 0 0 0 0 0 0 0 0 0 0 0 0 0 0 0 0 0.25 0"/>
<feBlend mode="normal" in2="BackgroundImageFix" result="effect1_dropShadow_0_1"/>
<feBlend mode="normal" in="SourceGraphic" in2="effect1_dropShadow_0_1" result="shape"/>
</filter>
<linearGradient id="paint0_linear_0_1" x1="28" y1="0" x2="28" y2="48" gradientUnits="userSpaceOnUse">
<stop stop-color="#DCDCDC"/>
<stop offset="1" stop-color="#F0F0F0"/>
</linearGradient>
</defs>
</svg>
