<svg width="48" height="48" viewBox="0 0 48 48" fill="none" xmlns="http://www.w3.org/2000/svg">
<rect x="1.5" y="1.5" width="45" height="45" stroke="#FF3162" stroke-opacity="0.2" stroke-width="3"/>
<path d="M30 16L29.2929 15.2929L30 14.5858L30.7071 15.2929L30 16ZM31 34C31 34.5523 30.5523 35 30 35C29.4477 35 29 34.5523 29 34L31 34ZM19.2929 25.2929L29.2929 15.2929L30.7071 16.7071L20.7071 26.7071L19.2929 25.2929ZM30.7071 15.2929L40.7071 25.2929L39.2929 26.7071L29.2929 16.7071L30.7071 15.2929ZM31 16L31 34L29 34L29 16L31 16Z" fill="#222222"/>
<path d="M10 32L10 34C10 36.2091 11.7909 38 14 38L34 38C36.2091 38 38 36.2091 38 34V32" stroke="#222222" stroke-width="2"/>
<path d="M18 12L8 28M8 12L18 28" stroke="#222222" stroke-width="2" stroke-linecap="round" stroke-linejoin="round"/>
</svg>
