<svg width="48" height="48" viewBox="0 0 48 48" fill="none" xmlns="http://www.w3.org/2000/svg">
<rect x="1.5" y="1.5" width="45" height="45" stroke="#FF3162" stroke-opacity="0.2" stroke-width="3"/>
<path d="M30 16L29.4697 15.4697L30 14.9393L30.5303 15.4697L30 16ZM30.75 34C30.75 34.4142 30.4142 34.75 30 34.75C29.5858 34.75 29.25 34.4142 29.25 34L30.75 34ZM19.4697 25.4697L29.4697 15.4697L30.5303 16.5303L20.5303 26.5303L19.4697 25.4697ZM30.5303 15.4697L40.5303 25.4697L39.4697 26.5303L29.4697 16.5303L30.5303 15.4697ZM30.75 16L30.75 34L29.25 34L29.25 16L30.75 16Z" fill="#222222"/>
<path d="M10 32L10 34C10 36.2091 11.7909 38 14 38L34 38C36.2091 38 38 36.2091 38 34V32" stroke="#222222" stroke-width="1.5"/>
<path d="M18 12L8 28M8 12L18 28" stroke="#222222" stroke-width="1.5" stroke-linecap="round" stroke-linejoin="round"/>
</svg>
