<svg width="56" height="56" viewBox="0 0 56 56" fill="none" xmlns="http://www.w3.org/2000/svg">
<g filter="url(#filter0_d_0_1)">
<rect x="4" width="48" height="48" fill="#F0F0F0"/>
<rect x="5.5" y="1.5" width="45" height="45" stroke="url(#paint0_linear_0_1)" stroke-width="3"/>
<mask id="path-3-inside-1_0_1" fill="white">
<path d="M9.38914 22.9469C9.76457 20.1435 9.95228 18.7418 10.9398 17.9875C11.9274 17.2333 13.3291 17.421 16.1325 17.7964L27.8659 19.3677C28.2711 19.422 28.4736 19.4491 28.6457 19.549C28.8177 19.6488 28.9418 19.8112 29.1899 20.1361L32.7624 24.8134C33.0105 25.1382 33.1346 25.3007 33.1856 25.4929C33.2367 25.6852 33.2096 25.8877 33.1553 26.2929L31.584 38.0264C31.2085 40.8298 31.0208 42.2315 30.0333 42.9857C29.0457 43.74 27.6441 43.5523 24.8406 43.1769L12.9468 41.584C10.1434 41.2086 8.74173 41.0209 7.98746 40.0334C7.23318 39.0458 7.4209 37.6441 7.79633 34.8407L9.38914 22.9469Z"/>
</mask>
<path d="M9.38914 22.9469C9.76457 20.1435 9.95228 18.7418 10.9398 17.9875C11.9274 17.2333 13.3291 17.421 16.1325 17.7964L27.8659 19.3677C28.2711 19.422 28.4736 19.4491 28.6457 19.549C28.8177 19.6488 28.9418 19.8112 29.1899 20.1361L32.7624 24.8134C33.0105 25.1382 33.1346 25.3007 33.1856 25.4929C33.2367 25.6852 33.2096 25.8877 33.1553 26.2929L31.584 38.0264C31.2085 40.8298 31.0208 42.2315 30.0333 42.9857C29.0457 43.74 27.6441 43.5523 24.8406 43.1769L12.9468 41.584C10.1434 41.2086 8.74173 41.0209 7.98746 40.0334C7.23318 39.0458 7.4209 37.6441 7.79633 34.8407L9.38914 22.9469Z" stroke="#222222" stroke-width="3" mask="url(#path-3-inside-1_0_1)"/>
<path d="M23.8503 43.0428L23.9831 42.0516C24.2333 40.1827 24.3585 39.2482 23.8556 38.5899C23.3528 37.9315 22.4183 37.8064 20.5494 37.5561L17.5759 37.1579C15.707 36.9076 14.7725 36.7825 14.1142 37.2853C13.4558 37.7882 13.3307 38.7226 13.0804 40.5916L12.9477 41.5827" stroke="#222222" stroke-width="1.5"/>
<path d="M13.0879 25.459L22.9994 26.7863" stroke="#222222" stroke-width="1.5" stroke-linecap="round"/>
<path d="M19.233 17V6.81818H22.6733C23.4721 6.81818 24.125 6.96236 24.6321 7.25071C25.1425 7.53575 25.5204 7.92188 25.7656 8.40909C26.0109 8.89631 26.1335 9.43987 26.1335 10.0398C26.1335 10.6397 26.0109 11.1849 25.7656 11.6754C25.5237 12.166 25.1491 12.5571 24.642 12.8487C24.1349 13.1371 23.4853 13.2812 22.6932 13.2812H20.2273V12.1875H22.6534C23.2003 12.1875 23.6394 12.093 23.9709 11.9041C24.3023 11.7152 24.5426 11.46 24.6918 11.1385C24.8442 10.8137 24.9205 10.4474 24.9205 10.0398C24.9205 9.6321 24.8442 9.26752 24.6918 8.94602C24.5426 8.62453 24.3007 8.37263 23.9659 8.19034C23.6312 8.00473 23.187 7.91193 22.6335 7.91193H20.4659V17H19.233ZM36.1935 6.81818V17H35.0004L29.4521 9.00568H29.3526V17H28.1197V6.81818H29.3129L34.881 14.8324H34.9805V6.81818H36.1935ZM45.6209 10C45.5115 9.66525 45.3674 9.36529 45.1884 9.10014C45.0127 8.83168 44.8023 8.60298 44.557 8.41406C44.315 8.22514 44.04 8.08097 43.7317 7.98153C43.4235 7.8821 43.0854 7.83239 42.7175 7.83239C42.1143 7.83239 41.5658 7.98816 41.0719 8.29972C40.5781 8.61127 40.1853 9.07031 39.8936 9.67685C39.602 10.2834 39.4561 11.0275 39.4561 11.9091C39.4561 12.7907 39.6036 13.5348 39.8986 14.1413C40.1936 14.7479 40.593 15.2069 41.0968 15.5185C41.6006 15.83 42.1673 15.9858 42.7971 15.9858C43.3804 15.9858 43.8941 15.8615 44.3382 15.6129C44.7857 15.361 45.1337 15.0064 45.3823 14.549C45.6342 14.0883 45.7601 13.5464 45.7601 12.9233L46.138 13.0028H43.0755V11.9091H46.9533V13.0028C46.9533 13.8414 46.7743 14.5705 46.4164 15.1903C46.0617 15.8101 45.5712 16.2907 44.9448 16.6321C44.3217 16.9702 43.6058 17.1392 42.7971 17.1392C41.8955 17.1392 41.1034 16.9271 40.4206 16.5028C39.7412 16.0786 39.2109 15.4754 38.8297 14.6932C38.4519 13.911 38.263 12.983 38.263 11.9091C38.263 11.1037 38.3707 10.3795 38.5861 9.73651C38.8049 9.0902 39.1131 8.54001 39.5108 8.08594C39.9086 7.63187 40.3792 7.28385 40.9228 7.0419C41.4663 6.79995 42.0646 6.67898 42.7175 6.67898C43.2544 6.67898 43.7549 6.76018 44.2189 6.92258C44.6863 7.08168 45.1022 7.30871 45.4668 7.60369C45.8347 7.89536 46.1413 8.24503 46.3865 8.6527C46.6318 9.05705 46.8008 9.50616 46.8936 10H45.6209Z" fill="black"/>
</g>
<defs>
<filter id="filter0_d_0_1" x="0" y="0" width="56" height="56" filterUnits="userSpaceOnUse" color-interpolation-filters="sRGB">
<feFlood flood-opacity="0" result="BackgroundImageFix"/>
<feColorMatrix in="SourceAlpha" type="matrix" values="0 0 0 0 0 0 0 0 0 0 0 0 0 0 0 0 0 0 127 0" result="hardAlpha"/>
<feOffset dy="4"/>
<feGaussianBlur stdDeviation="2"/>
<feComposite in2="hardAlpha" operator="out"/>
<feColorMatrix type="matrix" values="0 0 0 0 0 0 0 0 0 0 0 0 0 0 0 0 0 0 0.25 0"/>
<feBlend mode="normal" in2="BackgroundImageFix" result="effect1_dropShadow_0_1"/>
<feBlend mode="normal" in="SourceGraphic" in2="effect1_dropShadow_0_1" result="shape"/>
</filter>
<linearGradient id="paint0_linear_0_1" x1="28" y1="0" x2="28" y2="48" gradientUnits="userSpaceOnUse">
<stop stop-color="#DCDCDC"/>
<stop offset="1" stop-color="#F0F0F0"/>
</linearGradient>
</defs>
</svg>
